<svg width="17" height="16" viewBox="0 0 17 16" fill="none" xmlns="http://www.w3.org/2000/svg">
<path d="M8.5 16C6.91775 16 5.37103 15.5308 4.05544 14.6518C2.73985 13.7727 1.71447 12.5233 1.10897 11.0615C0.503466 9.59966 0.34504 7.99113 0.653721 6.43928C0.962403 4.88743 1.72433 3.46197 2.84315 2.34315C3.96197 1.22433 5.38743 0.462403 6.93928 0.153721C8.49113 -0.15496 10.0997 0.00346629 11.5615 0.608967C13.0233 1.21447 14.2727 2.23985 15.1518 3.55544C16.0308 4.87103 16.5 6.41775 16.5 8C16.4977 10.121 15.6541 12.1545 14.1543 13.6543C12.6545 15.1541 10.621 15.9977 8.5 16ZM8.5 1.33334C7.18146 1.33334 5.89253 1.72433 4.7962 2.45687C3.69987 3.18941 2.84539 4.23061 2.34081 5.44878C1.83622 6.66695 1.7042 8.0074 1.96143 9.3006C2.21867 10.5938 2.85361 11.7817 3.78596 12.714C4.71831 13.6464 5.90619 14.2813 7.1994 14.5386C8.49261 14.7958 9.83305 14.6638 11.0512 14.1592C12.2694 13.6546 13.3106 12.8001 14.0431 11.7038C14.7757 10.6075 15.1667 9.31854 15.1667 8C15.1647 6.23249 14.4617 4.53792 13.2119 3.2881C11.9621 2.03828 10.2675 1.33528 8.5 1.33334Z" fill="white"/>
<path d="M8.49737 9.60874L5.35938 6.47074L6.30204 5.52808L8.49737 7.72341L10.6927 5.52808L11.6354 6.47074L8.49737 9.60874Z" fill="white"/>
<path d="M9.16145 3.33276H7.82812V8.6661H9.16145V3.33276Z" fill="white"/>
<path d="M11.8307 12.6672H5.16406V10.6672H6.4974V11.3339H10.4974V10.6672H11.8307V12.6672Z" fill="white"/>
</svg>
